<svg xmlns="http://www.w3.org/2000/svg" xmlns:xlink="http://www.w3.org/1999/xlink" width="2001.86" height="207.937" viewBox="0 0 2001.86 207.937">
  <defs>
    <linearGradient id="linear-gradient" x1="0.5" x2="0.5" y2="1" gradientUnits="objectBoundingBox">
      <stop offset="0" stop-color="lime"/>
      <stop offset="1" stop-color="#042df3"/>
    </linearGradient>
  </defs>
  <path id="Path_11" data-name="Path 11" d="M-864.459-129.943v-52.019h-77.994v52.019ZM-994.471,0V-207.937h155.987v25.975h25.975v52.019h-25.975v25.975h25.975V0h-51.949V-103.968h-77.994V0Zm351.006-77.994v-25.975h-77.994v25.975ZM-747.5,0V-25.975h-25.975v-77.994H-747.5v-25.975H-617.49v25.975h25.975v52.019H-721.459v25.975H-617.49V0Zm195.019,0V-129.943H-396.5v25.975h25.975V0h-51.949V-103.968h-26.044V0H-474.49V-103.968h-25.975V0Zm351.006-25.975v-77.994h-77.994v77.994ZM-305.516,0V-25.975H-331.49v-77.994h25.975v-25.975H-175.5v25.975h25.975v77.994H-175.5V0ZM-58.478,0V-25.975H-84.522v-77.994H-110.5v-25.975h25.975v-77.994H-32.5v77.994H19.516v25.975H-32.5v77.994H19.516V0ZM188.49-77.994v-25.975H110.5v25.975ZM84.452,0V-25.975H58.478v-77.994H84.452v-25.975H214.465v25.975H240.44v52.019H110.5v25.975H214.465V0ZM383.44,0V-207.937h25.975v25.975h26.044v25.975h25.975v26.044h25.975v25.975h26.044V-207.937H565.4V0H539.427V-25.975H513.452V-51.949H487.408V-77.994H461.433v-25.975H435.459V0ZM604.433,0V-207.937H786.4v25.975H656.452v52.019h77.994v25.975H656.452V0Zm286,0V-181.962H825.427v-25.975h181.962v25.975H942.452V0Z" transform="translate(994.471 207.937)" fill="url(#linear-gradient)"/>
</svg>
